<?xml version="1.0" encoding="UTF-8"?>
<svg version="1.1" xmlns="http://www.w3.org/2000/svg" width="300" height="168">
<path d="M0 0 C99 0 198 0 300 0 C300 55.44 300 110.88 300 168 C201 168 102 168 0 168 C0 112.56 0 57.12 0 0 Z " fill="#07223D" transform="translate(0,0)"/>
<path d="M0 0 C3.8496735 1.58420237 6.28658565 4.04281247 9.203125 6.97265625 C9.6857782 7.45576767 10.1684314 7.93887909 10.66571045 8.43663025 C11.67991024 9.45384054 12.69168919 10.47346961 13.70117188 11.49536133 C15.25335786 13.06589755 16.81349204 14.62819038 18.375 16.18945312 C26 23.85248363 26 23.85248363 26 25 C20.39 25 14.78 25 9 25 C9 54.37 9 83.74 9 114 C4.05 114 -0.9 114 -6 114 C-6 84.63 -6 55.26 -6 25 C-11.61 25 -17.22 25 -23 25 C-19.53440626 20.80480758 -15.93494625 16.88764919 -12.0625 13.0625 C-7.82565945 8.8769374 -3.83929231 4.55121406 0 0 Z " fill="#00D001" transform="translate(179,17)"/>
<path d="M0 0 C4.22627165 1.59614535 6.76944549 4.7705756 9.6875 8.0625 C10.74708731 9.23713195 11.80830007 10.41029959 12.87109375 11.58203125 C13.39558105 12.16033691 13.92006836 12.73864258 14.46044922 13.33447266 C17.35050715 16.46101487 20.40031456 19.42441912 23.453125 22.390625 C25 24 25 24 25 25 C19.72 25 14.44 25 9 25 C9 54.7 9 84.4 9 115 C4.05 115 -0.9 115 -6 115 C-6 85.3 -6 55.6 -6 25 C-11.28 25 -16.56 25 -22 25 C-20.29940492 21.59880984 -19.29987954 20.06501015 -16.69921875 17.5390625 C-16.05146484 16.90226562 -15.40371094 16.26546875 -14.73632812 15.609375 C-14.06021484 14.95453125 -13.38410156 14.2996875 -12.6875 13.625 C-8.19870606 9.25375934 -3.9176732 4.89519708 0 0 Z " fill="#FFC501" transform="translate(112,17)"/>
<path d="M0 0 C10.15890293 4.25039157 18.26048082 16.57560103 25 25 C19.72 25 14.44 25 9 25 C9 42.49 9 59.98 9 78 C3.39 78 -2.22 78 -8 78 C-8 60.51 -8 43.02 -8 25 C-12.95 25 -17.9 25 -23 25 C-18.49830742 19.59087962 -13.70712094 14.61577206 -8.6875 9.6875 C-7.2516235 8.27705975 -5.81791441 6.8644085 -4.38671875 5.44921875 C-3.75983154 4.83393311 -3.13294434 4.21864746 -2.48706055 3.5847168 C-0.90696216 2.05219373 -0.90696216 2.05219373 0 0 Z " fill="#0096FA" transform="translate(146,54)"/>
<path d="M0 0 C4.22627165 1.59614535 6.76944549 4.7705756 9.6875 8.0625 C10.74708731 9.23713195 11.80830007 10.41029959 12.87109375 11.58203125 C13.39558105 12.16033691 13.92006836 12.73864258 14.46044922 13.33447266 C17.35050715 16.46101487 20.40031456 19.42441912 23.453125 22.390625 C25 24 25 24 25 25 C19.72 25 14.44 25 9 25 C9 54.7 9 84.4 9 115 C4.05 115 -0.9 115 -6 115 C-6 114.67 -6 114.34 -6 114 C-1.38 114 3.24 114 8 114 C7.98227642 104.15959047 7.94357954 94.31987807 7.86790943 84.47974014 C7.83361238 79.91058025 7.80852527 75.34175566 7.80444336 70.77246094 C7.80016616 66.36309019 7.7717523 61.95447619 7.72656822 57.54534149 C7.71357456 55.86287595 7.70929217 54.18031992 7.71384621 52.49781036 C7.71873932 50.14126292 7.69272207 47.78693829 7.65942383 45.43066406 C7.66804947 44.73438904 7.67667511 44.03811401 7.68556213 43.32073975 C7.68649263 41.11547652 7.68649263 41.11547652 7 38 C4.57204326 35.64785858 4.57204326 35.64785858 2 34 C2 33.34 2 32.68 2 32 C1.4225 31.731875 0.845 31.46375 0.25 31.1875 C-2.05550043 29.97070811 -4.02056192 28.69666121 -6 27 C-6 26.34 -6 25.68 -6 25 C-11.28 25 -16.56 25 -22 25 C-20.29940492 21.59880984 -19.29987954 20.06501015 -16.69921875 17.5390625 C-16.05146484 16.90226562 -15.40371094 16.26546875 -14.73632812 15.609375 C-14.06021484 14.95453125 -13.38410156 14.2996875 -12.6875 13.625 C-8.19870606 9.25375934 -3.9176732 4.89519708 0 0 Z " fill="#FAC304" transform="translate(112,17)"/>
<path d="M0 0 C3.8496735 1.58420237 6.28658565 4.04281247 9.203125 6.97265625 C9.6857782 7.45576767 10.1684314 7.93887909 10.66571045 8.43663025 C11.67991024 9.45384054 12.69168919 10.47346961 13.70117188 11.49536133 C15.25335786 13.06589755 16.81349204 14.62819038 18.375 16.18945312 C26 23.85248363 26 23.85248363 26 25 C20.39 25 14.78 25 9 25 C9 28.96 9 32.92 9 37 C4.20490077 33.95920537 0.40252285 30.77359101 -4 27 C-4.33 55.71 -4.66 84.42 -5 114 C-5.33 114 -5.66 114 -6 114 C-6 84.63 -6 55.26 -6 25 C-11.61 25 -17.22 25 -23 25 C-19.53440626 20.80480758 -15.93494625 16.88764919 -12.0625 13.0625 C-7.82565945 8.8769374 -3.83929231 4.55121406 0 0 Z " fill="#00CD02" transform="translate(179,17)"/>
<path d="M0 0 C2.64 1.98 5.28 3.96 8 6 C9.24426758 6.70104858 9.24426758 6.70104858 10.51367188 7.41625977 C13.13793489 9.04397135 14.41421979 10.31718672 16 13 C17.3362825 19.51600484 16.748779 26.33605529 16.5 32.9375 C16.45983882 34.7844284 16.42334266 36.63144037 16.390625 38.47851562 C16.30279268 42.98774963 16.16494219 47.49295455 16 52 C10.72 52 5.44 52 0 52 C0 34.84 0 17.68 0 0 Z " fill="#0098FC" transform="translate(139,80)"/>
<path d="M0 0 C4.62 0 9.24 0 14 0 C14 29.37 14 58.74 14 89 C9.05 89 4.1 89 -1 89 C-1 88.67 -1 88.34 -1 88 C3.62 88 8.24 88 13 88 C12.98227642 78.15959047 12.94357954 68.31987807 12.86790943 58.47974014 C12.83361238 53.91058025 12.80852527 49.34175566 12.80444336 44.77246094 C12.80016616 40.36309019 12.7717523 35.95447619 12.72656822 31.54534149 C12.71357456 29.86287595 12.70929217 28.18031992 12.71384621 26.49781036 C12.71873932 24.14126292 12.69272207 21.78693829 12.65942383 19.43066406 C12.67236229 18.38625153 12.67236229 18.38625153 12.68556213 17.32073975 C12.68649263 15.11547652 12.68649263 15.11547652 12 12 C9.57204326 9.64785858 9.57204326 9.64785858 7 8 C7 7.34 7 6.68 7 6 C6.401875 5.7525 5.80375 5.505 5.1875 5.25 C3 4 3 4 0 0 Z " fill="#E6B216" transform="translate(107,43)"/>
<path d="M0 0 C4.95 0 9.9 0 15 0 C15 3.96 15 7.92 15 12 C10.20490077 8.95920537 6.40252285 5.77359101 2 2 C1.67 30.71 1.34 59.42 1 89 C0.67 89 0.34 89 0 89 C0 59.63 0 30.26 0 0 Z " fill="#02A013" transform="translate(173,42)"/>
<path d="M0 0 C5.61 0 11.22 0 17 0 C17 4.62 17 9.24 17 14 C11.27379265 10.47618009 7.23382541 6.65228926 2 2 C1.67 18.83 1.34 35.66 1 53 C0.67 53 0.34 53 0 53 C0 35.51 0 18.02 0 0 Z " fill="#0384D8" transform="translate(138,79)"/>
<path d="M0 0 C1.670625 0.061875 1.670625 0.061875 3.375 0.125 C3.40188151 1.77074566 3.42134123 3.41661413 3.4375 5.0625 C3.44910156 5.97902344 3.46070313 6.89554688 3.47265625 7.83984375 C3.375 10.125 3.375 10.125 2.375 11.125 C0.04202567 11.16592937 -2.29205225 11.16741723 -4.625 11.125 C-4.625 9.805 -4.625 8.485 -4.625 7.125 C-4.83125 6.25875 -5.0375 5.3925 -5.25 4.5 C-5.37375 3.71625 -5.4975 2.9325 -5.625 2.125 C-3.625 0.125 -3.625 0.125 0 0 Z " fill="#E6E7E9" transform="translate(128.625,139.875)"/>
<path d="M0 0 C2.625 0.375 2.625 0.375 5 1 C5.68707555 3.49064888 6 5.37886292 6 8 C3.6875 8.625 3.6875 8.625 1 9 C0.01 8.34 -0.98 7.68 -2 7 C-2.3125 4.5 -2.3125 4.5 -2 2 C-1.34 1.34 -0.68 0.68 0 0 Z " fill="#D1D3D7" transform="translate(157,140)"/>
<path d="M0 0 C0.66 0 1.32 0 2 0 C2.33 0.99 2.66 1.98 3 3 C4.65 3.33 6.3 3.66 8 4 C8 6.64 8 9.28 8 12 C7.34 12 6.68 12 6 12 C6 10.02 6 8.04 6 6 C4.68 6 3.36 6 2 6 C2 7.65 2 9.3 2 11 C1.34 11 0.68 11 0 11 C0 7.37 0 3.74 0 0 Z " fill="#F9FAFA" transform="translate(135,137)"/>
<path d="M0 0 C0.66 0 1.32 0 2 0 C2 1.32 2 2.64 2 4 C3.65 4 5.3 4 7 4 C7 2.68 7 1.36 7 0 C7.66 0 8.32 0 9 0 C9 3.3 9 6.6 9 10 C8.34 10 7.68 10 7 10 C7 8.68 7 7.36 7 6 C5.35 6 3.7 6 2 6 C2 7.32 2 8.64 2 10 C1.34 10 0.68 10 0 10 C0 6.7 0 3.4 0 0 Z " fill="#FCFCFD" transform="translate(106,138)"/>
<path d="M0 0 C2.625 0.375 2.625 0.375 5 1 C5.93423645 4.01031744 6.04449911 4.86650268 5 8 C3.00045254 8.04254356 0.99958364 8.04080783 -1 8 C-2 7 -2 7 -2.1875 4.5625 C-2 2 -2 2 0 0 Z " fill="#EEEFF0" transform="translate(177,140)"/>
<path d="M0 0 C0.99 0 1.98 0 3 0 C3 2.64 3 5.28 3 8 C4.65 8 6.3 8 8 8 C8 8.99 8 9.98 8 11 C5.36 11 2.72 11 0 11 C0 7.37 0 3.74 0 0 Z " fill="#CED0D4" transform="translate(146,138)"/>
<path d="M0 0 C0.99 0 1.98 0 3 0 C3.33 1.32 3.66 2.64 4 4 C4.66 4 5.32 4 6 4 C6.33 2.68 6.66 1.36 7 0 C7.99 0.33 8.98 0.66 10 1 C8.68 3.64 7.36 6.28 6 9 C3 8 3 8 2.05078125 6.15234375 C1.80714844 5.42144531 1.56351563 4.69054687 1.3125 3.9375 C1.06113281 3.20402344 0.80976563 2.47054687 0.55078125 1.71484375 C0.36902344 1.14894531 0.18726563 0.58304688 0 0 Z " fill="#D6D8DC" transform="translate(164,140)"/>
<path d="M0 0 C0.99 0 1.98 0 3 0 C3 3.96 3 7.92 3 12 C2.01 12 1.02 12 0 12 C0 8.04 0 4.08 0 0 Z " fill="#CCCFD3" transform="translate(185,137)"/>
<path d="M0 0 C0.99 0 1.98 0 3 0 C3 2.97 3 5.94 3 9 C2.01 9 1.02 9 0 9 C0 6.03 0 3.06 0 0 Z " fill="#C6C9CD" transform="translate(118,140)"/>
<path d="M0 0 C2.0625 0.4375 2.0625 0.4375 4 1 C4 2.65 4 4.3 4 6 C3.38125 5.814375 2.7625 5.62875 2.125 5.4375 C-0.04160178 4.76313824 -0.04160178 4.76313824 -2 6 C-1.125 1.125 -1.125 1.125 0 0 Z " fill="#818695" transform="translate(125,140)"/>
<path d="M0 0 C2.475 0.495 2.475 0.495 5 1 C5 3.64 5 6.28 5 9 C4.34 9 3.68 9 3 9 C3 7.02 3 5.04 3 3 C2.01 2.67 1.02 2.34 0 2 C0 1.34 0 0.68 0 0 Z " fill="#D6D9DC" transform="translate(138,140)"/>
<path d="M0 0 C1.65 0.33 3.3 0.66 5 1 C4.67 1.99 4.34 2.98 4 4 C2.02 4 0.04 4 -2 4 C-1.34 2.68 -0.68 1.36 0 0 Z " fill="#BBC0C6" transform="translate(177,140)"/>
</svg>
